{
	"asset":{
		"generator":"Khronos glTF Blender I/O v5.0.21",
		"version":"2.0"
	},
	"scene":0,
	"scenes":[
		{
			"name":"Scene",
			"nodes":[
				0,
				1,
				2
			]
		}
	],
	"nodes":[
		{
			"mesh":0,
			"name":"Door"
		},
		{
			"mesh":1,
			"name":"Doorcol-colonly"
		},
		{
			"mesh":2,
			"name":"Portal",
			"translation":[
				0,
				0,
				-4.492138385772705
			]
		}
	],
	"materials":[
		{
			"doubleSided":true,
			"name":"asset_atlas",
			"pbrMetallicRoughness":{
				"baseColorTexture":{
					"index":0
				},
				"metallicFactor":0,
				"roughnessFactor":0.8999999761581421
			}
		}
	],
	"meshes":[
		{
			"name":"Cube",
			"primitives":[
				{
					"attributes":{
						"POSITION":0,
						"NORMAL":1,
						"TEXCOORD_0":2
					},
					"indices":3,
					"material":0
				}
			]
		},
		{
			"name":"Plane",
			"primitives":[
				{
					"attributes":{
						"POSITION":4,
						"NORMAL":5,
						"TEXCOORD_0":6
					},
					"indices":7
				}
			]
		},
		{
			"name":"Cube.001",
			"primitives":[
				{
					"attributes":{
						"POSITION":8,
						"NORMAL":9,
						"TEXCOORD_0":10
					},
					"indices":11,
					"material":0
				}
			]
		}
	],
	"textures":[
		{
			"sampler":0,
			"source":0
		}
	],
	"images":[
		{
			"mimeType":"image/png",
			"name":"Assets_Atlas",
			"uri":"Assets_Atlas.png"
		}
	],
	"accessors":[
		{
			"bufferView":0,
			"componentType":5126,
			"count":376,
			"max":[
				3.9552831649780273,
				10.142220497131348,
				0.9675413370132446
			],
			"min":[
				-3.9552831649780273,
				0.009591534733772278,
				-0.9701559543609619
			],
			"type":"VEC3"
		},
		{
			"bufferView":1,
			"componentType":5126,
			"count":376,
			"type":"VEC3"
		},
		{
			"bufferView":2,
			"componentType":5126,
			"count":376,
			"type":"VEC2"
		},
		{
			"bufferView":3,
			"componentType":5123,
			"count":624,
			"type":"SCALAR"
		},
		{
			"bufferView":4,
			"componentType":5126,
			"count":104,
			"max":[
				4.098245143890381,
				10.676308631896973,
				1.1265389919281006
			],
			"min":[
				-4.098245143890381,
				0,
				-1.282187581062317
			],
			"type":"VEC3"
		},
		{
			"bufferView":5,
			"componentType":5126,
			"count":104,
			"type":"VEC3"
		},
		{
			"bufferView":6,
			"componentType":5126,
			"count":104,
			"type":"VEC2"
		},
		{
			"bufferView":7,
			"componentType":5123,
			"count":156,
			"type":"SCALAR"
		},
		{
			"bufferView":8,
			"componentType":5126,
			"count":10,
			"max":[
				2.2576498985290527,
				8.804232597351074,
				5.274354934692383
			],
			"min":[
				-2.2576498985290527,
				0.04789157956838608,
				5.274354934692383
			],
			"type":"VEC3"
		},
		{
			"bufferView":9,
			"componentType":5126,
			"count":10,
			"type":"VEC3"
		},
		{
			"bufferView":10,
			"componentType":5126,
			"count":10,
			"type":"VEC2"
		},
		{
			"bufferView":11,
			"componentType":5123,
			"count":24,
			"type":"SCALAR"
		}
	],
	"bufferViews":[
		{
			"buffer":0,
			"byteLength":4512,
			"byteOffset":0,
			"target":34962
		},
		{
			"buffer":0,
			"byteLength":4512,
			"byteOffset":4512,
			"target":34962
		},
		{
			"buffer":0,
			"byteLength":3008,
			"byteOffset":9024,
			"target":34962
		},
		{
			"buffer":0,
			"byteLength":1248,
			"byteOffset":12032,
			"target":34963
		},
		{
			"buffer":0,
			"byteLength":1248,
			"byteOffset":13280,
			"target":34962
		},
		{
			"buffer":0,
			"byteLength":1248,
			"byteOffset":14528,
			"target":34962
		},
		{
			"buffer":0,
			"byteLength":832,
			"byteOffset":15776,
			"target":34962
		},
		{
			"buffer":0,
			"byteLength":312,
			"byteOffset":16608,
			"target":34963
		},
		{
			"buffer":0,
			"byteLength":120,
			"byteOffset":16920,
			"target":34962
		},
		{
			"buffer":0,
			"byteLength":120,
			"byteOffset":17040,
			"target":34962
		},
		{
			"buffer":0,
			"byteLength":80,
			"byteOffset":17160,
			"target":34962
		},
		{
			"buffer":0,
			"byteLength":48,
			"byteOffset":17240,
			"target":34963
		}
	],
	"samplers":[
		{
			"magFilter":9729,
			"minFilter":9987
		}
	],
	"buffers":[
		{
			"byteLength":17288,
			"uri":"env_door.bin"
		}
	]
}
