{
	"asset":{
		"generator":"Khronos glTF Blender I/O v5.0.21",
		"version":"2.0"
	},
	"scene":0,
	"scenes":[
		{
			"name":"Scene",
			"nodes":[
				0
			]
		}
	],
	"nodes":[
		{
			"mesh":0,
			"name":"Rat",
			"rotation":[
				0.7071068286895752,
				0,
				0,
				0.7071068286895752
			]
		}
	],
	"animations":[
		{
			"channels":[
				{
					"sampler":0,
					"target":{
						"node":0,
						"path":"translation"
					}
				},
				{
					"sampler":1,
					"target":{
						"node":0,
						"path":"rotation"
					}
				},
				{
					"sampler":2,
					"target":{
						"node":0,
						"path":"scale"
					}
				}
			],
			"name":"BodyAction",
			"samplers":[
				{
					"input":6,
					"interpolation":"STEP",
					"output":7
				},
				{
					"input":8,
					"interpolation":"LINEAR",
					"output":9
				},
				{
					"input":6,
					"interpolation":"STEP",
					"output":10
				}
			]
		}
	],
	"materials":[
		{
			"doubleSided":true,
			"name":"Rat_material",
			"pbrMetallicRoughness":{
				"baseColorTexture":{
					"index":0
				},
				"metallicFactor":0,
				"roughnessFactor":0.8999999761581421
			}
		}
	],
	"meshes":[
		{
			"name":"Sphere",
			"primitives":[
				{
					"attributes":{
						"POSITION":0,
						"NORMAL":1,
						"TEXCOORD_0":2,
						"COLOR_0":3,
						"COLOR_1":4
					},
					"indices":5,
					"material":0
				}
			]
		}
	],
	"textures":[
		{
			"sampler":0,
			"source":0
		}
	],
	"images":[
		{
			"mimeType":"image/png",
			"name":"Rat",
			"uri":"Rat.png"
		}
	],
	"accessors":[
		{
			"bufferView":0,
			"componentType":5126,
			"count":377,
			"max":[
				0.5905824899673462,
				1.2447571754455566,
				-0.0009618699550628662
			],
			"min":[
				-0.5905824899673462,
				-2.0857090950012207,
				-0.8371100425720215
			],
			"type":"VEC3"
		},
		{
			"bufferView":1,
			"componentType":5126,
			"count":377,
			"type":"VEC3"
		},
		{
			"bufferView":2,
			"componentType":5126,
			"count":377,
			"type":"VEC2"
		},
		{
			"bufferView":3,
			"componentType":5121,
			"count":377,
			"normalized":true,
			"type":"VEC4"
		},
		{
			"bufferView":4,
			"componentType":5123,
			"count":377,
			"normalized":true,
			"type":"VEC4"
		},
		{
			"bufferView":5,
			"componentType":5123,
			"count":846,
			"type":"SCALAR"
		},
		{
			"bufferView":6,
			"componentType":5126,
			"count":2,
			"max":[
				2
			],
			"min":[
				0.041666666666666664
			],
			"type":"SCALAR"
		},
		{
			"bufferView":7,
			"componentType":5126,
			"count":2,
			"type":"VEC3"
		},
		{
			"bufferView":8,
			"componentType":5126,
			"count":48,
			"max":[
				2
			],
			"min":[
				0.041666666666666664
			],
			"type":"SCALAR"
		},
		{
			"bufferView":9,
			"componentType":5126,
			"count":48,
			"type":"VEC4"
		},
		{
			"bufferView":10,
			"componentType":5126,
			"count":2,
			"type":"VEC3"
		}
	],
	"bufferViews":[
		{
			"buffer":0,
			"byteLength":4524,
			"byteOffset":0,
			"target":34962
		},
		{
			"buffer":0,
			"byteLength":4524,
			"byteOffset":4524,
			"target":34962
		},
		{
			"buffer":0,
			"byteLength":3016,
			"byteOffset":9048,
			"target":34962
		},
		{
			"buffer":0,
			"byteLength":1508,
			"byteOffset":12064,
			"target":34962
		},
		{
			"buffer":0,
			"byteLength":3016,
			"byteOffset":13572,
			"target":34962
		},
		{
			"buffer":0,
			"byteLength":1692,
			"byteOffset":16588,
			"target":34963
		},
		{
			"buffer":0,
			"byteLength":8,
			"byteOffset":18280
		},
		{
			"buffer":0,
			"byteLength":24,
			"byteOffset":18288
		},
		{
			"buffer":0,
			"byteLength":192,
			"byteOffset":18312
		},
		{
			"buffer":0,
			"byteLength":768,
			"byteOffset":18504
		},
		{
			"buffer":0,
			"byteLength":24,
			"byteOffset":19272
		}
	],
	"samplers":[
		{
			"magFilter":9729,
			"minFilter":9987
		}
	],
	"buffers":[
		{
			"byteLength":19296,
			"uri":"rat.bin"
		}
	]
}
