{
	"asset":{
		"generator":"Khronos glTF Blender I/O v5.0.21",
		"version":"2.0"
	},
	"scene":0,
	"scenes":[
		{
			"name":"Scene",
			"nodes":[
				0,
				1,
				2,
				3
			]
		}
	],
	"nodes":[
		{
			"mesh":0,
			"name":"Body",
			"rotation":[
				0.7071068286895752,
				0,
				0,
				0.7071068286895752
			],
			"translation":[
				0,
				0.3499999940395355,
				-0.26711228489875793
			]
		},
		{
			"mesh":1,
			"name":"EarR",
			"scale":[
				0.5480760931968689,
				0.5480760931968689,
				0.5480760931968689
			],
			"translation":[
				0,
				-0.34999987483024597,
				-0.2671121656894684
			]
		},
		{
			"mesh":2,
			"name":"Cola",
			"rotation":[
				0.5,
				-0.5,
				-0.5,
				0.5
			],
			"translation":[
				0,
				0.2228354513645172,
				-0.37161681056022644
			]
		},
		{
			"mesh":3,
			"name":"Cube",
			"scale":[
				0.04444446042180061,
				0.04444446042180061,
				0.04444446042180061
			],
			"translation":[
				0,
				-0.37108346819877625,
				-0.2813267707824707
			]
		}
	],
	"materials":[
		{
			"doubleSided":true,
			"name":"Material.001",
			"pbrMetallicRoughness":{
				"baseColorTexture":{
					"index":0
				},
				"metallicFactor":0,
				"roughnessFactor":0.8999999761581421
			}
		}
	],
	"meshes":[
		{
			"name":"Sphere",
			"primitives":[
				{
					"attributes":{
						"POSITION":0,
						"NORMAL":1,
						"TEXCOORD_0":2,
						"COLOR_0":3,
						"COLOR_1":4
					},
					"indices":5,
					"material":0
				}
			]
		},
		{
			"name":"Circle.002",
			"primitives":[
				{
					"attributes":{
						"POSITION":6,
						"NORMAL":7,
						"TEXCOORD_0":8
					},
					"indices":9,
					"material":0
				}
			]
		},
		{
			"name":"Cylinder",
			"primitives":[
				{
					"attributes":{
						"POSITION":10,
						"NORMAL":11,
						"TEXCOORD_0":12
					},
					"indices":13,
					"material":0
				}
			]
		},
		{
			"name":"Cube",
			"primitives":[
				{
					"attributes":{
						"POSITION":14,
						"NORMAL":15,
						"TEXCOORD_0":16
					},
					"indices":17,
					"material":0
				}
			]
		}
	],
	"textures":[
		{
			"sampler":0,
			"source":0
		}
	],
	"images":[
		{
			"mimeType":"image/png",
			"name":"Rat",
			"uri":"Rat.png"
		}
	],
	"accessors":[
		{
			"bufferView":0,
			"componentType":5126,
			"count":119,
			"max":[
				0.6014334559440613,
				2.0628066062927246,
				0.32803893089294434
			],
			"min":[
				-0.6014333367347717,
				-0.25366586446762085,
				-0.49044424295425415
			],
			"type":"VEC3"
		},
		{
			"bufferView":1,
			"componentType":5126,
			"count":119,
			"type":"VEC3"
		},
		{
			"bufferView":2,
			"componentType":5126,
			"count":119,
			"type":"VEC2"
		},
		{
			"bufferView":3,
			"componentType":5121,
			"count":119,
			"normalized":true,
			"type":"VEC4"
		},
		{
			"bufferView":4,
			"componentType":5123,
			"count":119,
			"normalized":true,
			"type":"VEC4"
		},
		{
			"bufferView":5,
			"componentType":5123,
			"count":432,
			"type":"SCALAR"
		},
		{
			"bufferView":6,
			"componentType":5126,
			"count":24,
			"max":[
				0.7200806736946106,
				1.887750267982483,
				2.443803548812866
			],
			"min":[
				-0.7200806736946106,
				1.4177314043045044,
				2.2235748767852783
			],
			"type":"VEC3"
		},
		{
			"bufferView":7,
			"componentType":5126,
			"count":24,
			"type":"VEC3"
		},
		{
			"bufferView":8,
			"componentType":5126,
			"count":24,
			"type":"VEC2"
		},
		{
			"bufferView":9,
			"componentType":5123,
			"count":36,
			"type":"SCALAR"
		},
		{
			"bufferView":10,
			"componentType":5126,
			"count":186,
			"max":[
				0.0033423379063606262,
				-0.05315518379211426,
				0.04336612671613693
			],
			"min":[
				-0.047428615391254425,
				-1.0828043222427368,
				-0.019999975338578224
			],
			"type":"VEC3"
		},
		{
			"bufferView":11,
			"componentType":5126,
			"count":186,
			"type":"VEC3"
		},
		{
			"bufferView":12,
			"componentType":5126,
			"count":186,
			"type":"VEC2"
		},
		{
			"bufferView":13,
			"componentType":5123,
			"count":306,
			"type":"SCALAR"
		},
		{
			"bufferView":14,
			"componentType":5126,
			"count":48,
			"max":[
				6.23475456237793,
				18.25836181640625,
				35.96685791015625
			],
			"min":[
				-6.23475456237793,
				15.861196517944336,
				33.96094512939453
			],
			"type":"VEC3"
		},
		{
			"bufferView":15,
			"componentType":5126,
			"count":48,
			"type":"VEC3"
		},
		{
			"bufferView":16,
			"componentType":5126,
			"count":48,
			"type":"VEC2"
		},
		{
			"bufferView":17,
			"componentType":5123,
			"count":72,
			"type":"SCALAR"
		}
	],
	"bufferViews":[
		{
			"buffer":0,
			"byteLength":1428,
			"byteOffset":0,
			"target":34962
		},
		{
			"buffer":0,
			"byteLength":1428,
			"byteOffset":1428,
			"target":34962
		},
		{
			"buffer":0,
			"byteLength":952,
			"byteOffset":2856,
			"target":34962
		},
		{
			"buffer":0,
			"byteLength":476,
			"byteOffset":3808,
			"target":34962
		},
		{
			"buffer":0,
			"byteLength":952,
			"byteOffset":4284,
			"target":34962
		},
		{
			"buffer":0,
			"byteLength":864,
			"byteOffset":5236,
			"target":34963
		},
		{
			"buffer":0,
			"byteLength":288,
			"byteOffset":6100,
			"target":34962
		},
		{
			"buffer":0,
			"byteLength":288,
			"byteOffset":6388,
			"target":34962
		},
		{
			"buffer":0,
			"byteLength":192,
			"byteOffset":6676,
			"target":34962
		},
		{
			"buffer":0,
			"byteLength":72,
			"byteOffset":6868,
			"target":34963
		},
		{
			"buffer":0,
			"byteLength":2232,
			"byteOffset":6940,
			"target":34962
		},
		{
			"buffer":0,
			"byteLength":2232,
			"byteOffset":9172,
			"target":34962
		},
		{
			"buffer":0,
			"byteLength":1488,
			"byteOffset":11404,
			"target":34962
		},
		{
			"buffer":0,
			"byteLength":612,
			"byteOffset":12892,
			"target":34963
		},
		{
			"buffer":0,
			"byteLength":576,
			"byteOffset":13504,
			"target":34962
		},
		{
			"buffer":0,
			"byteLength":576,
			"byteOffset":14080,
			"target":34962
		},
		{
			"buffer":0,
			"byteLength":384,
			"byteOffset":14656,
			"target":34962
		},
		{
			"buffer":0,
			"byteLength":144,
			"byteOffset":15040,
			"target":34963
		}
	],
	"samplers":[
		{
			"magFilter":9729,
			"minFilter":9987
		}
	],
	"buffers":[
		{
			"byteLength":15184,
			"uri":"rat.bin"
		}
	]
}
